<!-- Generated by IcoMoon.io -->
<svg version="1.1" xmlns="http://www.w3.org/2000/svg" width="16" height="16" viewBox="0 0 16 16">
<title>help-circle</title>
<path d="M15.333 8c0-2.025-0.821-3.859-2.148-5.185s-3.161-2.148-5.185-2.148-3.859 0.821-5.185 2.148-2.148 3.161-2.148 5.185 0.821 3.859 2.148 5.185 3.161 2.148 5.185 2.148 3.859-0.821 5.185-2.148 2.148-3.161 2.148-5.185zM14 8c0 1.657-0.671 3.156-1.757 4.243s-2.585 1.757-4.243 1.757-3.156-0.671-4.243-1.757-1.757-2.585-1.757-4.243 0.671-3.156 1.757-4.243 2.585-1.757 4.243-1.757 3.156 0.671 4.243 1.757 1.757 2.585 1.757 4.243zM6.689 6.221c0.122-0.347 0.373-0.612 0.681-0.76s0.671-0.178 1.019-0.055c0.305 0.107 0.546 0.313 0.7 0.573 0.122 0.205 0.19 0.443 0.191 0.691 0 0.103-0.026 0.206-0.078 0.309-0.053 0.107-0.135 0.217-0.245 0.327-0.473 0.473-1.221 0.728-1.221 0.728-0.349 0.117-0.538 0.494-0.421 0.843s0.494 0.538 0.843 0.421c0 0 1.029-0.337 1.742-1.050 0.186-0.186 0.363-0.409 0.495-0.673 0.133-0.267 0.219-0.572 0.219-0.913-0.003-0.487-0.136-0.958-0.378-1.366-0.309-0.519-0.793-0.935-1.403-1.149-0.695-0.244-1.423-0.183-2.038 0.111s-1.119 0.825-1.363 1.52c-0.123 0.347 0.060 0.728 0.407 0.85s0.728-0.061 0.85-0.407zM8.667 11.333c0-0.368-0.299-0.667-0.667-0.667s-0.667 0.299-0.667 0.667 0.299 0.667 0.667 0.667 0.667-0.299 0.667-0.667z"></path>
</svg>
